<svg xmlns="http://www.w3.org/2000/svg" viewBox="0 0 720 260" role="img" aria-labelledby="title desc"><title id="title">Sanity Track</title><desc id="desc">Monitoreo inteligente y espacios saludables</desc><defs><linearGradient id="edge" x1="0" y1="0" x2="1" y2="1"><stop stop-color="#26a88f"/><stop offset="1" stop-color="#123f67"/></linearGradient></defs><g transform="translate(24 16)"><path d="M108 8 194 57v82c0 57-35 88-86 107-51-19-86-50-86-107V57z" fill="none" stroke="url(#edge)" stroke-width="13" stroke-linejoin="round"/><path d="M76 74h64v105H76z" fill="#12334c"/><path d="M68 179h80M84 75v-25M132 75V50" fill="none" stroke="#12334c" stroke-width="9" stroke-linecap="round"/><path d="M90 140h36l-5 12H95z" fill="white"/><path d="M83 46c13-13 34-13 47 0M72 31c19-19 51-19 70 0" fill="none" stroke="#278e84" stroke-width="7" stroke-linecap="round"/><path d="M22 94H2m20 31H0m23 31H6M194 94h20m-20 31h25m-25 31h17" fill="none" stroke="#278e84" stroke-width="7" stroke-linecap="round"/><circle cx="2" cy="94" r="7" fill="white" stroke="#278e84" stroke-width="6"/><circle cx="0" cy="125" r="7" fill="white" stroke="#278e84" stroke-width="6"/><circle cx="6" cy="156" r="7" fill="white" stroke="#278e84" stroke-width="6"/><circle cx="214" cy="94" r="7" fill="white" stroke="#123f67" stroke-width="6"/><circle cx="219" cy="125" r="7" fill="white" stroke="#123f67" stroke-width="6"/><circle cx="211" cy="156" r="7" fill="white" stroke="#123f67" stroke-width="6"/><circle cx="164" cy="172" r="33" fill="white" stroke="#12334c" stroke-width="9"/><path d="m148 172 11 11 23-25" fill="none" stroke="#2d9b87" stroke-width="9" stroke-linecap="round" stroke-linejoin="round"/></g><g font-family="Arial,sans-serif" font-weight="800"><text x="282" y="113" fill="#12334c" font-size="58" letter-spacing="4">SANITY</text><text x="284" y="170" fill="#278e84" font-size="50" letter-spacing="10">TRACK</text><path d="M284 190h363" stroke="#278e84" stroke-width="3"/><circle cx="284" cy="190" r="5" fill="#278e84"/><circle cx="647" cy="190" r="5" fill="#278e84"/><text x="285" y="220" fill="#12334c" font-size="13" letter-spacing="2">MONITOREO INTELIGENTE · ESPACIOS SALUDABLES</text></g></svg>
